<svg width="24" height="24" viewBox="0 0 24 24" fill="none" xmlns="http://www.w3.org/2000/svg">
<path d="M9 12H7.5V10.5H9V12Z" fill="#262626"/>
<path d="M7.5 15.75H9V14.25H7.5V15.75Z" fill="#262626"/>
<path d="M12.75 19.5H11.25V18H12.75V19.5Z" fill="#262626"/>
<path d="M16.5 19.5H15V18H16.5V19.5Z" fill="#262626"/>
<path d="M12.75 15.75H11.25V14.25H12.75V15.75Z" fill="#262626"/>
<path d="M15 15.75H16.5V14.25H15V15.75Z" fill="#262626"/>
<path d="M11.25 12H12.75V10.5H11.25V12Z" fill="#262626"/>
<path d="M16.5 12H15V10.5H16.5V12Z" fill="#262626"/>
<path d="M7.5 19.5H9V18H7.5V19.5Z" fill="#262626"/>
<path fill-rule="evenodd" clip-rule="evenodd" d="M6 1.5C5.61306 1.5 5.21892 1.62167 4.92029 1.92029C4.62167 2.21892 4.5 2.61306 4.5 3V21C4.5 21.3869 4.62167 21.781 4.92029 22.0797C5.21892 22.3783 5.61306 22.5 6 22.5H18C18.3869 22.5 18.781 22.3783 19.0797 22.0797C19.3784 21.781 19.5 21.3869 19.5 21V3C19.5 2.61306 19.3784 2.21892 19.0797 1.92029C18.781 1.62167 18.3869 1.5 18 1.5H6ZM6 21V8.25H18V21H6ZM18 6.75H6V3H18V6.75Z" fill="#262626"/>
</svg>
