<svg width="24" height="24" viewBox="0 0 24 24" fill="none" xmlns="http://www.w3.org/2000/svg">
<path d="M12.561 11L12 11.3356L11.439 11H8.64655L7.75 11.8965V14.582L8.8945 16.4751H11.704L12 16.1785L12.296 16.4751H15.1461L16.249 14.5795V11.8965L15.3535 11H12.561ZM9.7735 14.9751L9.25 14.1905V12.5175L11.025 12.5L11.25 12.6345V14.8071L11.082 14.9751H9.7735ZM14.2515 14.9751H12.918L12.75 14.8071V12.6345L12.975 12.5H14.7326L14.7501 14.2L14.2515 14.9751Z" fill="#262626"/>
<path d="M22.5 7.25009C21.017 7.25009 20.3 7.25609 19.643 7.62509C19.0975 6.63409 18.224 5.30261 17.283 4.89011C16.249 4.43611 15.4095 4.3501 12 4.3501C8.5905 4.3501 7.74997 4.43609 6.71701 4.88959C5.77601 5.30259 4.90301 6.63409 4.35751 7.62509C3.70101 7.25609 2.983 7.25009 1.5 7.25009V8.75009C2.8605 8.75009 3.297 8.76861 3.5885 8.91111C2.3545 10.0611 1.5 10.9906 1.5 12.0376V19.5001H6.5V18.6721C7.4455 18.7401 9.22102 18.8306 12 18.8306C14.779 18.8306 16.5545 18.7401 17.5 18.6721V19.5001H22.5V12.0376C22.5 10.9906 21.646 10.0606 20.4115 8.91111C20.703 8.76861 21.1395 8.75009 22.5 8.75009V7.25009ZM7.31949 6.26309C8.06948 5.93309 8.70097 5.8501 12 5.8501C15.299 5.8501 15.9281 5.93308 16.6805 6.26358C17.117 6.45508 17.733 7.30908 18.236 8.18661C17.015 8.06908 15.12 8.05011 12 8.05011C8.88 8.05011 6.985 8.06908 5.764 8.18661C6.26701 7.30908 6.88299 6.45459 7.31949 6.26309ZM20.6075 11.2676C19.5019 11.5033 18.379 11.65 17.25 11.7066V13.2101C18.5116 13.1503 19.7659 12.985 21 12.7161V18.0001H19V17.0076C14.3433 17.4383 9.6567 17.4383 5 17.0076V18.0001H3V12.7161C4.23404 12.985 5.48841 13.1503 6.75 13.2101V11.7066C5.62091 11.65 4.49816 11.5033 3.39249 11.2676C3.77456 10.8115 4.18898 10.3836 4.63251 9.98706C5.08251 9.56961 7.72598 9.54861 11.9985 9.54861C16.271 9.54861 18.9125 9.56961 19.3645 9.98706C19.8088 10.3837 20.2242 10.8117 20.6075 11.2676Z" fill="#262626"/>
</svg>
