<svg width="28" height="27" viewBox="0 0 28 27" fill="none" xmlns="http://www.w3.org/2000/svg">
<path fill-rule="evenodd" clip-rule="evenodd" d="M5.55795 6.32358C4.77772 7.10381 4.29688 8.24955 4.29688 9.70312C4.29688 12.323 5.89986 14.8614 8.01886 17.0837C10.0173 19.1798 12.3499 20.8666 13.8485 21.9375H14.1515C15.6501 20.8666 17.9827 19.1798 19.9812 17.0837C22.1002 14.8614 23.7031 12.323 23.7031 9.70312C23.7031 8.24955 23.2223 7.10381 22.4421 6.32358C21.6618 5.54334 20.5161 5.0625 19.0625 5.0625C17.0034 5.0625 15.5396 6.02243 14.8605 7.5203L14.6358 8.01562H13.3642L13.1395 7.5203C12.4604 6.02243 10.9966 5.0625 8.9375 5.0625C7.48393 5.0625 6.33818 5.54334 5.55795 6.32358ZM4.3647 5.13033C5.504 3.99103 7.10045 3.375 8.9375 3.375C11.0762 3.375 12.8718 4.21305 14 5.68903C15.1282 4.21305 16.9238 3.375 19.0625 3.375C20.8995 3.375 22.496 3.99103 23.6353 5.13033C24.7746 6.26963 25.3906 7.86607 25.3906 9.70312C25.3906 12.9895 23.4076 15.9355 21.2024 18.2483C19.027 20.5299 16.4981 22.3355 15.0122 23.3965C14.9783 23.4206 14.9451 23.4444 14.9123 23.4678L14.6923 23.625H13.3077L13.0877 23.4678C13.0549 23.4444 13.0217 23.4206 12.9878 23.3965C11.5019 22.3355 8.97302 20.5299 6.79755 18.2483C4.59233 15.9355 2.60938 12.9895 2.60938 9.70312C2.60938 7.86607 3.22541 6.26963 4.3647 5.13033Z" fill="#262626"/>
</svg>
