<svg width="24" height="24" viewBox="0 0 24 24" fill="none" xmlns="http://www.w3.org/2000/svg">
<path d="M9.75 16.5H8.25V15H9.75V16.5Z" fill="#262626"/>
<path d="M8.25 13.5H9.75V12H8.25V13.5Z" fill="#262626"/>
<path d="M15.75 16.5H11.25V15H15.75V16.5Z" fill="#262626"/>
<path d="M11.25 13.5H15.75V12H11.25V13.5Z" fill="#262626"/>
<path d="M20.25 11.1502C20.2504 10.3045 20.2507 9.61972 20.0173 8.9781C19.768 8.29252 19.283 7.72237 18.5303 6.96972L15.5303 3.96972C14.7777 3.21706 14.2076 2.73201 13.5219 2.48271C12.8803 2.24939 12.1955 2.24967 11.3499 2.25003L3.75 2.25005V21.7501H20.25V11.1502ZM11.2715 3.75005C11.8568 3.75313 12.1483 3.88273 12.328 4.09052C12.538 4.3335 12.75 4.857 12.75 6V9.75H16.5C17.643 9.75 18.1665 9.96195 18.4095 10.172C18.6198 10.3539 18.75 10.6503 18.75 11.25V20.2501H5.25V3.75005H11.2715ZM17.7788 8.34675C17.3923 8.28007 16.9654 8.25 16.5 8.25H14.25V6C14.25 5.53461 14.2199 5.10766 14.1532 4.72115C14.2507 4.81383 14.3558 4.91651 14.4697 5.03038L17.4697 8.0304C17.5835 8.14425 17.6862 8.24925 17.7788 8.34675Z" fill="#262626"/>
</svg>
