<svg width="24" height="24" viewBox="0 0 24 24" fill="none" xmlns="http://www.w3.org/2000/svg">
<path fill-rule="evenodd" clip-rule="evenodd" d="M18.6972 1.5C17.6467 1.5 16.7676 1.65654 16.1233 2.00343C15.4419 2.37028 15.0004 2.97337 15.0004 3.75V3.7829C15.0003 4.27487 15.0003 4.75832 15.091 5.25845C15.1574 5.62477 15.2693 5.98738 15.4479 6.37893C15.2362 6.60172 15.0336 6.85831 14.8289 7.14819C14.4338 7.70767 13.9981 8.43967 13.4587 9.37552L13.391 9.49298C12.5843 10.8923 11.9753 11.9486 11.7241 12.8751C11.5872 13.3799 11.5473 13.8695 11.6333 14.3783C11.7179 14.8795 11.918 15.3577 12.2022 15.8495L12.9026 17.0648C12.4625 16.9475 11.9104 16.8003 11.4433 16.6754C8.00198 15.7577 6.88684 15.75 5.25001 15.75C4.8622 15.75 4.46873 15.873 4.17086 16.1709C3.87299 16.4687 3.75 16.8622 3.75 17.25V17.2954C3.74997 18.1586 3.74994 18.9563 3.85223 19.6313C3.9591 20.3365 4.18915 20.9998 4.71966 21.5303C5.19754 22.0082 5.67343 22.2737 6.37882 22.3954C6.98649 22.5002 7.7913 22.5001 8.91315 22.5H16.3254L19.4905 10.6943C19.856 9.33105 20.0506 8.54235 20.1495 7.9002C20.25 7.24793 20.25 6.75643 20.25 6.02621L20.2503 5.15035L19.2728 1.5H18.6972ZM18.7246 5.25166L18.127 3.01999C17.5118 3.06568 17.0935 3.18467 16.8344 3.32419C16.539 3.48321 16.5004 3.63011 16.5004 3.75C16.5004 4.27973 16.5025 4.63549 16.5669 4.99075C16.5971 5.15707 16.6424 5.32939 16.7141 5.51995C17.3058 5.30325 17.9624 5.2599 18.7246 5.25166ZM11.0562 18.1245C11.5319 18.2518 12.0947 18.4018 12.5384 18.5201L13.8976 18.8819L14.7261 17.2248L13.5014 15.0997C13.2734 14.7052 13.1579 14.3982 13.1123 14.1284C13.0679 13.8661 13.0823 13.5976 13.1718 13.2677C13.3663 12.5504 13.8709 11.6643 14.7583 10.1245C15.3005 9.1839 15.7043 8.5089 16.0542 8.01345C16.4033 7.51905 16.6656 7.25224 16.9064 7.09168C17.2945 6.83294 17.7269 6.76876 18.7445 6.75406C18.7364 7.08283 18.7165 7.3508 18.667 7.67175C18.5825 8.22022 18.4101 8.93145 18.0416 10.3058L15.1746 21H9C7.76738 21 7.09794 20.9972 6.63368 20.9172C6.25157 20.8513 6.05246 20.7418 5.78035 20.4697C5.56089 20.2502 5.41594 19.9387 5.3353 19.4066C5.25187 18.8561 5.25 18.1699 5.25 17.25H5.28876C6.7801 17.2499 7.77623 17.2499 11.0562 18.1245Z" fill="#262626"/>
</svg>
